<?xml version="1.0" encoding="UTF-8"?>
<svg width="100" height="26" viewBox="0 0 100 26" version="1.1" xmlns="http://www.w3.org/2000/svg">
    <g fill="none" fill-rule="evenodd">
        <path d="M 12.237,2.4 C 11.784,2.143 11.266,2 10.72,2 H 3.905 c -0.287,0 -0.531,0.208 -0.575,0.492 L 0.03,22.108 c -0.033,0.213 0.131,0.407 0.348,0.407 h 4.41 l 1.108,-7.027 -0.034,0.221 c 0.043,-0.284 0.287,-0.493 0.574,-0.493 h 2.394 c 5.667,0 9.347,-3.587 9.347,-8.671 0,-1.262 -0.613,-2.304 -1.71,-3.044" fill="#003087"/>
        <path d="M 35.738,2.4 C 35.285,2.143 34.767,2 34.221,2 h -6.815 c -0.287,0 -0.531,0.208 -0.575,0.492 L 23.531,22.108 c -0.033,0.213 0.131,0.407 0.348,0.407 h 4.41 l 1.108,-7.027 -0.034,0.221 c 0.043,-0.284 0.287,-0.493 0.574,-0.493 h 2.394 c 5.667,0 9.347,-3.587 9.347,-8.671 0,-1.262 -0.613,-2.304 -1.71,-3.044" fill="#009CDE"/>
        <path d="M 45.197,9.124 h -3.615 c -0.246,0 -0.456,0.179 -0.494,0.422 l -1.255,7.959 c -0.029,0.182 0.112,0.349 0.298,0.349 h 1.851 c 0.246,0 0.456,-0.179 0.494,-0.422 l 0.338,-2.145 c 0.038,-0.243 0.248,-0.422 0.494,-0.422 h 1.143 c 2.374,0 3.743,-1.149 4.101,-3.427 0.162,-0.997 0.007,-1.78 -0.46,-2.328 -0.517,-0.604 -1.433,-0.924 -2.657,-0.924 M 45.797,12.375 c -0.197,1.293 -1.184,1.293 -2.138,1.293 h -0.543 l 0.381,-2.415 c 0.023,-0.145 0.148,-0.251 0.295,-0.251 h 0.249 c 0.65,0 1.264,0 1.583,0.37 0.19,0.222 0.247,0.552 0.173,1.003" fill="#003087"/>
        <path d="M 68.197,9.124 h -3.615 c -0.246,0 -0.456,0.179 -0.494,0.422 l -1.255,7.959 c -0.029,0.182 0.112,0.349 0.298,0.349 h 1.721 c 0.174,0 0.322,-0.127 0.349,-0.299 l 0.356,-2.253 c 0.038,-0.243 0.248,-0.422 0.494,-0.422 h 1.143 c 2.374,0 3.743,-1.149 4.101,-3.427 0.162,-0.997 0.007,-1.78 -0.46,-2.328 -0.517,-0.604 -1.433,-0.924 -2.657,-0.924 M 68.797,12.375 c -0.197,1.293 -1.184,1.293 -2.138,1.293 h -0.543 l 0.381,-2.415 c 0.023,-0.145 0.148,-0.251 0.295,-0.251 h 0.249 c 0.65,0 1.264,0 1.583,0.37 0.19,0.222 0.247,0.552 0.173,1.003" fill="#009CDE"/>
        <path d="M 55.874,9.124 h -3.621 c -0.246,0 -0.456,0.179 -0.494,0.422 l -1.255,7.959 c -0.029,0.182 0.112,0.349 0.298,0.349 h 3.621 c 0.246,0 0.456,-0.179 0.494,-0.422 l 1.255,-7.959 c 0.029,-0.182 -0.112,-0.349 -0.298,-0.349" fill="#003087"/>
        <path d="M 84.874,9.124 h -3.621 c -0.246,0 -0.456,0.179 -0.494,0.422 l -1.255,7.959 c -0.029,0.182 0.112,0.349 0.298,0.349 h 3.621 c 0.246,0 0.456,-0.179 0.494,-0.422 l 1.255,-7.959 c 0.029,-0.182 -0.112,-0.349 -0.298,-0.349" fill="#009CDE"/>
        <path d="M 78.874,13.124 h -2.621 c -0.224,0 -0.414,0.163 -0.45,0.384 l -0.115,0.732 -0.183,-0.265 c -0.567,-0.824 -1.832,-1.101 -3.094,-1.101 -2.892,0 -5.364,2.192 -5.844,5.269 -0.25,1.534 0.105,3.001 0.975,4.021 0.799,0.936 1.939,1.325 3.298,1.325 2.331,0 3.624,-1.498 3.624,-1.498 l -0.117,0.727 c -0.029,0.182 0.112,0.349 0.298,0.349 h 2.362 c 0.246,0 0.456,-0.179 0.494,-0.422 l 0.932,-5.905 c 0.029,-0.182 -0.112,-0.349 -0.298,-0.349 M 75.336,18.195 c -0.253,1.498 -1.443,2.502 -2.962,2.502 -0.761,0 -1.372,-0.245 -1.764,-0.708 -0.389,-0.461 -0.537,-1.118 -0.413,-1.849 0.238,-1.482 1.443,-2.519 2.945,-2.519 0.745,0 1.349,0.247 1.748,0.714 0.401,0.47 0.558,1.131 0.446,1.86" fill="#003087"/>
        <path d="M 95.874,13.124 h -2.621 c -0.224,0 -0.414,0.163 -0.45,0.384 l -0.115,0.732 -0.183,-0.265 c -0.567,-0.824 -1.832,-1.101 -3.094,-1.101 -2.892,0 -5.364,2.192 -5.844,5.269 -0.25,1.534 0.105,3.001 0.975,4.021 0.799,0.936 1.939,1.325 3.298,1.325 2.331,0 3.624,-1.498 3.624,-1.498 l -0.117,0.727 c -0.029,0.182 0.112,0.349 0.298,0.349 h 2.362 c 0.246,0 0.456,-0.179 0.494,-0.422 l 0.932,-5.905 c 0.029,-0.182 -0.112,-0.349 -0.298,-0.349 M 92.336,18.195 c -0.253,1.498 -1.443,2.502 -2.962,2.502 -0.761,0 -1.372,-0.245 -1.764,-0.708 -0.389,-0.461 -0.537,-1.118 -0.413,-1.849 0.238,-1.482 1.443,-2.519 2.945,-2.519 0.745,0 1.349,0.247 1.748,0.714 0.401,0.47 0.558,1.131 0.446,1.86" fill="#009CDE"/>
    </g>
</svg> 