<?xml version="1.0" encoding="utf-8"?>
<svg width="149" height="19" viewBox="0 0 149 19" fill="none" xmlns="http://www.w3.org/2000/svg">
    <path d="M35.3994 6.79566H32.8997V12.5374H35.3994C36.9593 12.5374 37.9392 11.5575 37.9392 9.66651C37.9392 7.77553 36.9593 6.79566 35.3994 6.79566ZM35.3994 11.3975H34.1596V7.93557H35.3994C36.3993 7.93557 36.6793 8.61651 36.6793 9.66651C36.6793 10.7165 36.3993 11.3975 35.3994 11.3975Z" fill="#6B7280"/>
    <path d="M42.479 9.66651C42.479 8.19661 43.319 7.77553 44.019 7.77553C44.719 7.77553 45.039 8.19661 45.039 9.06645V12.5374H46.2789V8.90657C46.2789 7.49666 45.4789 6.63574 44.159 6.63574C43.2391 6.63574 42.639 7.05682 42.319 7.49666V4.18457H41.0791V12.5374H42.319V9.66651H42.479Z" fill="#6B7280"/>
    <path d="M49.9985 10.7165C49.9985 11.5575 50.6385 11.8974 51.3585 11.8974C52.1984 11.8974 52.6784 11.3975 52.6784 10.5566C52.6784 9.71566 52.1984 9.21574 51.3585 9.21574C50.6385 9.21574 49.9985 9.55566 49.9985 10.3966V10.7165ZM52.8384 12.5374V11.7374C52.5184 12.2174 51.8784 12.6974 50.9585 12.6974C49.6785 12.6974 48.7586 11.8974 48.7586 10.7165C48.7586 9.53566 49.6785 8.73574 50.9585 8.73574C51.8784 8.73574 52.5184 9.19574 52.8384 9.67566V8.87574C52.8384 8.17478 52.3584 7.77553 51.4384 7.77553C50.6785 7.77553 50.1985 8.09557 49.7185 8.51566L49.0785 7.5957C49.7185 6.9557 50.5185 6.63574 51.5984 6.63574C53.1583 6.63574 54.0783 7.43566 54.0783 8.87574V12.5374H52.8384Z" fill="#6B7280"/>
    <path d="M58.7979 12.6974C57.2779 12.6974 56.198 11.5974 56.198 9.66651C56.198 7.73566 57.2779 6.63574 58.7979 6.63574C59.5979 6.63574 60.2778 6.9557 60.7578 7.5957L59.9179 8.35574C59.5979 7.93557 59.2379 7.77553 58.7979 7.77553C58.0379 7.77553 57.4579 8.47649 57.4579 9.66651C57.4579 10.8565 58.0379 11.5575 58.7979 11.5575C59.2379 11.5575 59.5979 11.3975 59.9179 10.9773L60.7578 11.7374C60.2778 12.3774 59.5979 12.6974 58.7979 12.6974Z" fill="#6B7280"/>
    <path d="M64.3175 10.7165C64.3175 11.5575 64.9575 11.8974 65.6775 11.8974C66.5174 11.8974 66.9974 11.3975 66.9974 10.5566C66.9974 9.71566 66.5174 9.21574 65.6775 9.21574C64.9575 9.21574 64.3175 9.55566 64.3175 10.3966V10.7165ZM67.1574 12.5374V11.7374C66.8374 12.2174 66.1974 12.6974 65.2775 12.6974C63.9975 12.6974 63.0776 11.8974 63.0776 10.7165C63.0776 9.53566 63.9975 8.73574 65.2775 8.73574C66.1974 8.73574 66.8374 9.19574 67.1574 9.67566V8.87574C67.1574 8.17478 66.6774 7.77553 65.7574 7.77553C64.9975 7.77553 64.5175 8.09557 64.0375 8.51566L63.3975 7.5957C64.0375 6.9557 64.8375 6.63574 65.9174 6.63574C67.4773 6.63574 68.3973 7.43566 68.3973 8.87574V12.5374H67.1574Z" fill="#6B7280"/>
    <path d="M73.117 12.6974C71.437 12.6974 70.1971 11.3975 70.1971 9.66651C70.1971 7.93557 71.437 6.63574 73.117 6.63574C74.7969 6.63574 76.0369 7.93557 76.0369 9.66651C76.0369 11.3975 74.7969 12.6974 73.117 12.6974ZM73.117 11.5575C73.957 11.5575 74.777 10.8565 74.777 9.66651C74.777 8.47649 73.957 7.77553 73.117 7.77553C72.277 7.77553 71.457 8.47649 71.457 9.66651C71.457 10.8565 72.277 11.5575 73.117 11.5575Z" fill="#6B7280"/>
    <path d="M80.7565 12.6974C79.0765 12.6974 77.8366 11.3975 77.8366 9.66651C77.8366 7.93557 79.0765 6.63574 80.7565 6.63574C82.4364 6.63574 83.6764 7.93557 83.6764 9.66651C83.6764 11.3975 82.4364 12.6974 80.7565 12.6974ZM80.7565 11.5575C81.5965 11.5575 82.4164 10.8565 82.4164 9.66651C82.4164 8.47649 81.5965 7.77553 80.7565 7.77553C79.9165 7.77553 79.0965 8.47649 79.0965 9.66651C79.0965 10.8565 79.9165 11.5575 80.7565 11.5575Z" fill="#6B7280"/>
    <path d="M88.396 12.6974C86.876 12.6974 85.7961 11.5974 85.7961 9.66651C85.7961 7.73566 86.876 6.63574 88.396 6.63574C89.196 6.63574 89.8759 6.9557 90.3559 7.5957L89.516 8.35574C89.196 7.93557 88.836 7.77553 88.396 7.77553C87.636 7.77553 87.056 8.47649 87.056 9.66651C87.056 10.8565 87.636 11.5575 88.396 11.5575C88.836 11.5575 89.196 11.3975 89.516 10.9773L90.3559 11.7374C89.8759 12.3774 89.196 12.6974 88.396 12.6974Z" fill="#6B7280"/>
    <path d="M93.9156 10.7165C93.9156 11.5575 94.5556 11.8974 95.2756 11.8974C96.1155 11.8974 96.5955 11.3975 96.5955 10.5566C96.5955 9.71566 96.1155 9.21574 95.2756 9.21574C94.5556 9.21574 93.9156 9.55566 93.9156 10.3966V10.7165ZM96.7555 12.5374V11.7374C96.4355 12.2174 95.7955 12.6974 94.8756 12.6974C93.5956 12.6974 92.6757 11.8974 92.6757 10.7165C92.6757 9.53566 93.5956 8.73574 94.8756 8.73574C95.7955 8.73574 96.4355 9.19574 96.7555 9.67566V8.87574C96.7555 8.17478 96.2755 7.77553 95.3555 7.77553C94.5956 7.77553 94.1156 8.09557 93.6356 8.51566L92.9956 7.5957C93.6356 6.9557 94.4356 6.63574 95.5155 6.63574C97.0754 6.63574 97.9954 7.43566 97.9954 8.87574V12.5374H96.7555Z" fill="#6B7280"/>
    <path d="M102.715 12.6974C101.035 12.6974 99.7952 11.3975 99.7952 9.66651C99.7952 7.93557 101.035 6.63574 102.715 6.63574C104.395 6.63574 105.635 7.93557 105.635 9.66651C105.635 11.3975 104.395 12.6974 102.715 12.6974ZM102.715 11.5575C103.555 11.5575 104.375 10.8565 104.375 9.66651C104.375 8.47649 103.555 7.77553 102.715 7.77553C101.875 7.77553 101.055 8.47649 101.055 9.66651C101.055 10.8565 101.875 11.5575 102.715 11.5575Z" fill="#6B7280"/>
    <path d="M110.355 12.6974C108.675 12.6974 107.435 11.3975 107.435 9.66651C107.435 7.93557 108.675 6.63574 110.355 6.63574C112.035 6.63574 113.275 7.93557 113.275 9.66651C113.275 11.3975 112.035 12.6974 110.355 12.6974ZM110.355 11.5575C111.195 11.5575 112.015 10.8565 112.015 9.66651C112.015 8.47649 111.195 7.77553 110.355 7.77553C109.515 7.77553 108.695 8.47649 108.695 9.66651C108.695 10.8565 109.515 11.5575 110.355 11.5575Z" fill="#6B7280"/>
    <path d="M117.994 12.6974C116.474 12.6974 115.394 11.5974 115.394 9.66651C115.394 7.73566 116.474 6.63574 117.994 6.63574C118.794 6.63574 119.474 6.9557 119.954 7.5957L119.114 8.35574C118.794 7.93557 118.434 7.77553 117.994 7.77553C117.234 7.77553 116.654 8.47649 116.654 9.66651C116.654 10.8565 117.234 11.5575 117.994 11.5575C118.434 11.5575 118.794 11.3975 119.114 10.9773L119.954 11.7374C119.474 12.3774 118.794 12.6974 117.994 12.6974Z" fill="#6B7280"/>
    <path d="M123.514 10.7165C123.514 11.5575 124.154 11.8974 124.874 11.8974C125.714 11.8974 126.194 11.3975 126.194 10.5566C126.194 9.71566 125.714 9.21574 124.874 9.21574C124.154 9.21574 123.514 9.55566 123.514 10.3966V10.7165ZM126.354 12.5374V11.7374C126.034 12.2174 125.394 12.6974 124.474 12.6974C123.194 12.6974 122.274 11.8974 122.274 10.7165C122.274 9.53566 123.194 8.73574 124.474 8.73574C125.394 8.73574 126.034 9.19574 126.354 9.67566V8.87574C126.354 8.17478 125.874 7.77553 124.954 7.77553C124.194 7.77553 123.714 8.09557 123.234 8.51566L122.594 7.5957C123.234 6.9557 124.034 6.63574 125.114 6.63574C126.674 6.63574 127.594 7.43566 127.594 8.87574V12.5374H126.354Z" fill="#6B7280"/>
    <path d="M132.313 12.6974C130.633 12.6974 129.393 11.3975 129.393 9.66651C129.393 7.93557 130.633 6.63574 132.313 6.63574C133.993 6.63574 135.233 7.93557 135.233 9.66651C135.233 11.3975 133.993 12.6974 132.313 12.6974ZM132.313 11.5575C133.153 11.5575 133.973 10.8565 133.973 9.66651C133.973 8.47649 133.153 7.77553 132.313 7.77553C131.473 7.77553 130.653 8.47649 130.653 9.66651C130.653 10.8565 131.473 11.5575 132.313 11.5575Z" fill="#6B7280"/>
    <path d="M139.953 12.6974C138.433 12.6974 137.353 11.5974 137.353 9.66651C137.353 7.73566 138.433 6.63574 139.953 6.63574C140.753 6.63574 141.433 6.9557 141.913 7.5957L141.073 8.35574C140.753 7.93557 140.393 7.77553 139.953 7.77553C139.193 7.77553 138.613 8.47649 138.613 9.66651C138.613 10.8565 139.193 11.5575 139.953 11.5575C140.393 11.5575 140.753 11.3975 141.073 10.9773L141.913 11.7374C141.433 12.3774 140.753 12.6974 139.953 12.6974Z" fill="#6B7280"/>
    <path d="M145.472 10.7165C145.472 11.5575 146.112 11.8974 146.832 11.8974C147.672 11.8974 148.152 11.3975 148.152 10.5566C148.152 9.71566 147.672 9.21574 146.832 9.21574C146.112 9.21574 145.472 9.55566 145.472 10.3966V10.7165ZM148.312 12.5374V11.7374C147.992 12.2174 147.352 12.6974 146.432 12.6974C145.152 12.6974 144.232 11.8974 144.232 10.7165C144.232 9.53566 145.152 8.73574 146.432 8.73574C147.352 8.73574 147.992 9.19574 148.312 9.67566V8.87574C148.312 8.17478 147.832 7.77553 146.912 7.77553C146.152 7.77553 145.672 8.09557 145.192 8.51566L144.552 7.5957C145.192 6.9557 145.992 6.63574 147.072 6.63574C148.632 6.63574 149.552 7.43566 149.552 8.87574V12.5374H148.312Z" fill="#6B7280"/>
    <path d="M8.99957 7.19574C8.99957 6.71574 8.59957 6.31574 8.11957 6.31574H4.91957C4.43957 6.31574 4.03957 6.71574 4.03957 7.19574V11.7957C4.03957 12.2757 4.43957 12.6757 4.91957 12.6757H8.11957C8.59957 12.6757 8.99957 12.2757 8.99957 11.7957V7.19574Z" fill="#635BFF"/>
    <path d="M19.9992 7.19574C19.9992 6.71574 19.5992 6.31574 19.1192 6.31574H15.9192C15.4392 6.31574 15.0392 6.71574 15.0392 7.19574V11.7957C15.0392 12.2757 15.4392 12.6757 15.9192 12.6757H19.1192C19.5992 12.6757 19.9992 12.2757 19.9992 11.7957V7.19574Z" fill="#635BFF"/>
    <path d="M14.4794 7.19574C14.4794 6.71574 14.0794 6.31574 13.5994 6.31574H10.3994C9.91936 6.31574 9.51936 6.71574 9.51936 7.19574V11.7957C9.51936 12.2757 9.91936 12.6757 10.3994 12.6757H13.5994C14.0794 12.6757 14.4794 12.2757 14.4794 11.7957V7.19574Z" fill="#635BFF"/>
    <path d="M25.4789 7.19574C25.4789 6.71574 25.0789 6.31574 24.5989 6.31574H21.3989C20.9189 6.31574 20.5189 6.71574 20.5189 7.19574V11.7957C20.5189 12.2757 20.9189 12.6757 21.3989 12.6757H24.5989C25.0789 12.6757 25.4789 12.2757 25.4789 11.7957V7.19574Z" fill="#635BFF"/>
</svg> 